# AST/ASF file generated using VICON BodyLanguage
# -----------------------------------------------
:version 1.10
:name VICON
:units
  mass 1.0
  length 0.45
  angle deg
:documentation
   .ast/.asf automatically generated from VICON data using
   VICON BodyBuilder and BodyLanguage model FoxedUp or BRILLIANT.MOD
:root
   order TX TY TZ RX RY RZ
   axis XYZ
   position 0 0 0  
   orientation 0 0 0 
:bonedata
  begin
     id 1 
     name lhipjoint
     direction 0.707368 -0.647095 0.284426 
     length 2.60678 
     axis 0 0 0  XYZ
  end
  begin
     id 2 
     name lfemur
     direction 0.34202 -0.939693 0  
     length 6.63812  
     axis 0 0 20  XYZ
    dof rx ry rz
    limits (-160.0 20.0)
           (-70.0 70.0)
           (-60.0 70.0)
  end
  begin
     id 3 
     name ltibia
     direction 0.34202 -0.939693 0   
     length 7.51178   
     axis 0 0 20   XYZ
    dof rx
    limits (-10.0 170.0)
  end
  begin
     id 4 
     name lfoot
     direction 0.121251 -0.333133 0.935051   
     length 1.83716   
     axis -90 7.62852e-016 20   XYZ
    dof rx rz
    limits (-45.0 90.0)
           (-70.0 20.0)
  end
  begin
     id 5 
     name ltoes
     direction 1.53611e-011 -4.21962e-011 1   
     length 0.916133   
     axis -90 7.62852e-016 20   XYZ
    dof rx
    limits (-90.0 20.0)
  end
  begin
     id 6 
     name rhipjoint
     direction -0.692419 -0.660507 0.290321   
     length 2.55385  
     axis 0 0 0  XYZ 
  end
  begin
     id 7 
     name rfemur
     direction -0.34202 -0.939693 0   
     length 7.29079   
     axis 0 0 -20   XYZ
    dof rx ry rz
    limits (-160.0 20.0)
           (-70.0 70.0)
           (-70.0 60.0)
  end
  begin
     id 8 
     name rtibia
     direction -0.34202 -0.939693 0   
     length 7.47143   
     axis 0 0 -20   XYZ
    dof rx
    limits (-10.0 170.0)
 end
 begin
     id 9 
     name rfoot
     direction -0.119907 -0.329441 0.936532   
     length 1.79439  
     axis -90 -7.62852e-016 -20   XYZ
    dof rx rz
    limits (-45.0 90.0)
           (-20.0 70.0)
  end
  begin
     id 10 
     name rtoes
     direction -1.53571e-011 -4.21961e-011 1   
     length 0.896039   
     axis -90 -7.62852e-016 -20   XYZ
    dof rx
    limits (-90.0 20.0)
  end
  begin
     id 11 
     name lowerback
     direction 0.0367721 0.992912 -0.113016   
     length 1.73542   
     axis 0 0 0   XYZ
    dof rx ry rz
    limits (-20.0 45.0)
           (-30.0 30.0)
           (-30.0 30.0)
  end
  begin
     id 12 
     name upperback
     direction -0.000314626 0.990678 0.136227   
     length 1.7514   
     axis 0 0 0   XYZ
    dof rx ry rz
    limits (-20.0 45.0)
           (-30.0 30.0)
           (-30.0 30.0)
  end
  begin
     id 13 
     name thorax
     direction -0.0226159 0.981151 0.191917   
     length 1.71471   
     axis 0 0 0   XYZ
    dof rx ry rz
    limits (-20.0 45.0)
           (-30.0 30.0)
           (-30.0 30.0)
  end
  begin
     id 14 
     name lowerneck
     direction 0.0219333 0.998071 0.0580739   
     length 1.65882   
     axis 0 0 0   XYZ
    dof rx ry rz
    limits (-20.0 45.0)
           (-30.0 30.0)
           (-30.0 30.0)
  end
  begin
     id 15 
     name upperneck
     direction 0.0384529 0.980058 -0.194957   
     length 1.6612   
     axis 0 0 0   XYZ
    dof rx ry rz
    limits (-20.0 45.0)
           (-30.0 30.0)
           (-30.0 30.0)
  end
  begin
     id 16
     name head
     direction 0.00592123 0.997421 -0.0715234  
     length 1.68077  
     axis 0 0 0   XYZ
    dof rx ry rz
    limits (-20.0 45.0)
           (-30.0 30.0)
           (-30.0 30.0)
  end
  begin
     id 17 
     name lclavicle
     direction 0.904803 0.417826 0.0821728  
     length 3.42227  
     axis 0 0 0   XYZ
    dof ry rz
    limits (-20.0 10.0)
           (0.0 20.0)
  end
  begin
     id 18 
     name lhumerus
     direction 1 -4.48965e-011 -2.68786e-027   
     length 5.11878   
     axis -180 -30 -90   XYZ
    dof rx ry rz
    limits (-60.0 90.0)
           (-90.0 90.0)
           (-90.0 90.0)
  end
  begin
     id 19
     name lradius
     direction 1 -4.48965e-011 2.61168e-028   
     length 3.59971   
     axis -180 -30 -90   XYZ
    dof rx
    limits (-10.0 170.0)
  end
  begin
     id 20
     name lwrist
     direction 1 -4.48965e-011 1.58672e-027   
     length 1.79985   
     axis -1.65735e-015 90 90   XYZ
    dof ry
    limits (-180.0 0.0)
 end
  begin
     id 21 
     name lhand
     direction 1 -4.48942e-011 3.17344e-027   
     length 0.62877   
     axis -2.02492e-015 90 90   XYZ
    dof rx rz
    limits (-90.0 90.0)
           (-45.0 45.0)
  end
  begin
     id 22 
     name lfingers
     direction 1 -4.49011e-011 6.34687e-027   
     length 0.506931   
     axis -4.04985e-015 90 90   XYZ
    dof rx
    limits (0.0 90.0)
  end
  begin
     id 23
     name lthumb
     direction 0.707107 -6.34982e-011 0.707107   
     length 0.727854   
     axis -90 45 2.85299e-015   XYZ
    dof rx rz
    limits (-45.0 45.0)
           (-45.0 45.0)
  end
  begin
     id 24 
     name rclavicle
     direction -0.945647 0.32488 0.0143075   
     length 3.52737  
     axis 0 0 0   XYZ 
    dof ry rz
    limits (-10.0 20.0)
           (-20.0 0.0)
  end
  begin
     id 25 
     name rhumerus
     direction -1 -4.48962e-011 1.92182e-027  
     length 5.4902   
     axis -180 30 90   XYZ
    dof rx ry rz
    limits (-90.0 60.0)
           (-90.0 90.0)
           (-90.0 90.0)
  end
  begin
     id 26 
     name rradius
     direction -1 -4.48967e-011 -5.97193e-028   
     length 3.20659   
     axis -180 30 90   XYZ
    dof rx
    limits (-10.0 170.0)
  end
  begin
     id 27 
     name rwrist
     direction -1 -4.48964e-011 1.58672e-027   
     length 1.6033   
     axis -1.65735e-015 -90 -90   XYZ
    dof ry
    limits (-180.0 0.0)
  end
  begin
     id 28
     name rhand
     direction -1 -4.49006e-011 3.17344e-027   
     length 0.691885   
     axis -2.02492e-015 -90 -90   XYZ
    dof rx rz
    limits (-90.0 90.0)
           (-45.0 45.0)
  end
  begin
     id 29
     name rfingers
     direction -1 -4.48908e-011 6.34687e-027   
     length 0.557815   
     axis -4.04985e-015 -90 -90   XYZ
    dof rx
    limits (0.0 90.0)
  end
  begin
     id 30
     name rthumb
     direction -0.707107 -6.34999e-011 0.707107   
     length 0.800915   
     axis -90 -45 -2.85299e-015   XYZ
    dof rx rz
    limits (-45.0 45.0)
           (-45.0 45.0)
  end
:hierarchy
  begin
    root lhipjoint rhipjoint lowerback
    lhipjoint lfemur
    lfemur ltibia
    ltibia lfoot
    lfoot ltoes
    rhipjoint rfemur
    rfemur rtibia
    rtibia rfoot
    rfoot rtoes
    lowerback upperback
    upperback thorax
    thorax lowerneck lclavicle rclavicle
    lowerneck upperneck
    upperneck head
    lclavicle lhumerus
    lhumerus lradius
    lradius lwrist
    lwrist lhand lthumb
    lhand lfingers
    rclavicle rhumerus
    rhumerus rradius
    rradius rwrist
    rwrist rhand rthumb
    rhand rfingers
  end

#!OML:ASF I:\Actors\actors\Patient Classification 1\Patient 1\Session 1\Subject1.ASF
:FULLY-SPECIFIED
:DEGREES
83
root -0.572179 17.4783 8.13772 8.58603 -0.452274 -5.37547
lowerback 2.69458 1.01703 4.10354
upperback -11.3168 1.82681 0.258988
thorax -13.741 0.44637 -2.26583
lowerneck -7.55552 -3.55553 -3.72449
upperneck 25.5346 -7.00353 10.0682
head 9.79355 -2.58049 3.40714
rclavicle -2.28602e-015 -9.93923e-015
rhumerus -52.9757 -38.3912 -53.5935
rradius 23.0557
rwrist 45.914
rhand 7.76869 -32.6689
rfingers 7.12502
rthumb 33.0071 -59.6676
lclavicle -2.28602e-015 -9.93923e-015
lhumerus -60.6396 40.7154 43.2745
lradius 24.1078
lwrist -21.0641
lhand -15.8801 -8.26722
lfingers 7.12502
lthumb 10.3158 21.4598
rfemur -2.77664 25.1001 22.3036
rtibia 1.4837
rfoot -10.833 -22.957
rtoes 3.22917
lfemur 4.68888 -40.6755 -16.3102
ltibia -3.5047
lfoot -18.6934 50.6085
ltoes 9.81082
84
root -0.57263 17.4783 8.13743 8.6021 -0.463578 -5.35943
lowerback 2.68482 1.02131 4.08705
upperback -11.3326 1.82995 0.249688
thorax -13.7536 0.448497 -2.26726
lowerneck -7.48593 -3.53278 -3.67551
upperneck 25.4653 -6.96827 10.0519
head 9.74988 -2.56511 3.39624
rclavicle -2.98177e-016 1.19271e-014
rhumerus -53.0627 -38.3906 -53.5145
rradius 23.0428
rwrist 46.0169
rhand 7.7642 -32.6345
rfingers 7.12502
rthumb 33.0028 -59.6341
lclavicle -2.98177e-016 1.19271e-014
lhumerus -62.5372 42.8213 39.9646
lradius 23.3382
lwrist -24.2656
lhand -15.8088 -9.0059
lfingers 7.12502
lthumb 10.3846 20.7177
rfemur -2.78993 25.1258 22.2767
rtibia 1.48302
rfoot -10.8562 -22.9525
rtoes 3.34981
lfemur 4.65814 -40.669 -16.3145
ltibia -3.48808
lfoot -18.607 50.6161
ltoes 9.71544
85
root -0.57323 17.479 8.13708 8.58973 -0.476826 -5.33061
lowerback 2.70974 1.03834 4.06012
upperback -11.3348 1.84842 0.218431
thorax -13.7701 0.457555 -2.28999
lowerneck -7.46956 -3.52801 -3.62979
upperneck 25.4209 -6.97415 10.0886
head 9.73128 -2.56128 3.39996
rclavicle 2.28602e-015 -4.37326e-015
rhumerus -53.2203 -38.5316 -53.3061
rradius 22.9776
rwrist 46.217
rhand 7.6854 -32.5155
rfingers 7.12502
rthumb 32.9279 -59.5309
lclavicle 2.28602e-015 -4.37326e-015
lhumerus -60.7416 40.8099 43.0446
lradius 24.0377
lwrist -21.3003
lhand -15.7237 -8.27431
lfingers 7.12502
lthumb 10.4667 21.4451
rfemur -2.7602 25.1895 22.2548
rtibia 1.46134
rfoot -10.8636 -22.9823
rtoes 3.39849
lfemur 4.67102 -40.6713 -16.3608
ltibia -3.47649
lfoot -18.6796 50.6239
ltoes 9.78299
86
root -0.57336 17.4797 8.13671 8.58014 -0.481088 -5.30649
lowerback 2.73193 1.04948 4.04234
upperback -11.335 1.86058 0.196224
thorax -13.783 0.463362 -2.30688
lowerneck -7.42781 -3.51881 -3.62711
upperneck 25.3393 -6.97461 10.1722
head 9.69717 -2.55606 3.42801
rclavicle -6.65929e-015 -5.56597e-015
rhumerus -53.3661 -38.6927 -53.0655
rradius 22.9034
rwrist 46.3825
rhand 7.58588 -32.4953
rfingers 7.12502
rthumb 32.8332 -59.5306
lclavicle -6.65929e-015 -5.56597e-015
lhumerus -60.7506 40.8211 43.0194
lradius 24.0355
lwrist -21.3011
lhand -15.7114 -8.31493
lfingers 7.12502
lthumb 10.4785 21.4039
rfemur -2.74605 25.199 22.2327
rtibia 1.44989
rfoot -10.8595 -22.9797
rtoes 3.3714
lfemur 4.68493 -40.6563 -16.3961
ltibia -3.48241
lfoot -18.6875 50.6197
ltoes 9.7936
87
root -0.573359 17.4796 8.136 8.5811 -0.48151 -5.30276
lowerback 2.73635 1.05714 4.04413
upperback -11.3313 1.87011 0.185119
thorax -13.7803 0.467041 -2.32152
lowerneck -7.31134 -3.48686 -3.66177
upperneck 25.1595 -6.94234 10.3199
head 9.61434 -2.53771 3.48782
rclavicle 2.08724e-015 4.77083e-015
rhumerus -53.4773 -38.8435 -52.8527
rradius 22.8457
rwrist 46.5171
rhand 7.50018 -32.5319
rfingers 7.12502
rthumb 32.7517 -59.5842
lclavicle 2.08724e-015 4.77083e-015
lhumerus -60.7962 40.8884 42.9019
lradius 23.9779
lwrist -21.4488
lhand -15.7277 -8.53015
lfingers 7.12502
lthumb 10.4628 21.1895
rfemur -2.74821 25.1773 22.225
rtibia 1.44393
rfoot -10.861 -22.9725
rtoes 2.82153
lfemur 4.68346 -40.6229 -16.3915
ltibia -3.50018
lfoot -18.5959 50.6041
ltoes 9.69445
